<?xml version="1.0" encoding="UTF-8"?>
<svg id="Layer_1" data-name="Layer 1" xmlns="http://www.w3.org/2000/svg" viewBox="0 0 260 260">
  <defs>
    <style>
      .cls-1 {
        stroke: #737373;
        stroke-linecap: round;
        stroke-linejoin: round;
      }

      .cls-1, .cls-2 {
        fill: none;
      }

      .cls-3 {
        fill: #44b65e;
        opacity: .4;
      }

      .cls-3, .cls-4, .cls-5, .cls-6 {
        stroke-width: 0px;
      }

      .cls-4 {
        fill: #737373;
      }

      .cls-5 {
        fill: #eab308;
      }

      .cls-6 {
        fill: #f4f5f5;
      }

      .cls-2 {
        stroke: #44b65e;
        stroke-dasharray: 0 0 14.1 8.05;
        stroke-miterlimit: 10;
        stroke-width: 11px;
      }
    </style>
  </defs>
  <g>
    <rect class="cls-3" x="9.51" y="117.6" width="232.89" height="84.99" rx="21.93" ry="21.93"/>
    <rect class="cls-2" x="9.51" y="117.6" width="232.89" height="84.99" rx="21.93" ry="21.93"/>
  </g>
  <g>
    <rect class="cls-6" x="17.08" y="36.33" width="241.64" height="89.93" rx="10" ry="10"/>
    <rect class="cls-4" x="72.08" y="49.82" width="163.32" height="12.93" rx="2" ry="2"/>
    <rect class="cls-4" x="72.08" y="75.18" width="69.17" height="12.93" rx="2" ry="2"/>
    <rect class="cls-4" x="165.68" y="75.18" width="69.17" height="12.93" rx="2" ry="2"/>
    <rect class="cls-4" x="72.08" y="99.83" width="69.17" height="12.93" rx="2" ry="2"/>
    <line class="cls-1" x1="153.74" y1="75.18" x2="153.74" y2="88.1"/>
    <path class="cls-5" d="M25.61,36.28h30.8v90.02h-30.8c-4.72,0-8.55-3.83-8.55-8.55V44.83c0-4.72,3.83-8.55,8.55-8.55Z"/>
  </g>
</svg>